<svg width="214" height="41" viewBox="0 0 214 41" fill="none" xmlns="http://www.w3.org/2000/svg">
<path d="M64.4365 21.6268H57.7243V29.6233C57.7243 29.9241 57.576 30.1504 57.2825 30.3085C56.9859 30.4729 56.6577 30.5504 56.2948 30.5504C55.9319 30.5504 55.61 30.4729 55.3134 30.3085C55.0167 30.1504 54.8684 29.9241 54.8684 29.6233V12.0893C54.8684 11.773 55.0167 11.5405 55.3134 11.401C55.61 11.2614 55.9382 11.187 56.2948 11.187C56.6514 11.187 56.9859 11.2583 57.2825 11.401C57.576 11.5405 57.7243 11.773 57.7243 12.0893V19.3974H64.4365V12.0893C64.4365 11.773 64.5879 11.5405 64.8846 11.401C65.178 11.2614 65.5031 11.187 65.866 11.187C66.2289 11.187 66.5539 11.2583 66.8474 11.401C67.144 11.5405 67.2924 11.773 67.2924 12.0893V29.6233C67.2924 29.9241 67.144 30.1504 66.8474 30.3085C66.5539 30.4729 66.2257 30.5504 65.866 30.5504C65.5062 30.5504 65.178 30.4729 64.8846 30.3085C64.5879 30.1504 64.4365 29.9241 64.4365 29.6233V21.6268Z" fill="#0186B7"/>
<path d="M75.3623 17.8377C76.0818 17.8377 76.7635 17.9587 77.4104 18.1974C78.0604 18.4331 78.6253 18.7679 79.1208 19.202C79.6162 19.6361 80.0075 20.1539 80.2978 20.7523C80.5818 21.3507 80.727 22.0143 80.727 22.7367C80.727 23.2824 80.6576 23.7103 80.5124 24.0204C80.3673 24.3304 80.1842 24.5537 79.957 24.6963C79.733 24.8358 79.4742 24.9289 79.1776 24.963C78.8809 24.9971 78.5811 25.0157 78.2782 25.0157H72.5916V25.6234C72.5916 26.5257 72.9135 27.2295 73.5636 27.7442C74.2074 28.2558 75.0531 28.5132 76.0945 28.5132C76.5804 28.5132 76.9875 28.4574 77.3189 28.3519C77.6502 28.2465 77.9374 28.1318 78.1835 28.0109C78.4265 27.8868 78.6411 27.7721 78.8304 27.6636C79.0198 27.5582 79.2028 27.5055 79.3858 27.5055C79.7267 27.5055 79.9917 27.6512 80.1937 27.9427C80.3893 28.2341 80.4903 28.5039 80.4903 28.7519C80.4903 28.9442 80.3862 29.1612 80.1811 29.3969C79.9728 29.6356 79.673 29.8588 79.2785 30.0604C78.8809 30.265 78.4107 30.4325 77.8616 30.5627C77.3125 30.696 76.6972 30.7611 76.0156 30.7611C75.0973 30.7611 74.2578 30.6309 73.4942 30.3766C72.7305 30.1224 72.071 29.7658 71.5124 29.3038C70.957 28.8449 70.5278 28.293 70.2217 27.6481C69.9156 27.0032 69.761 26.2869 69.761 25.487V22.9724C69.761 22.284 69.9093 21.6236 70.2059 20.9973C70.5026 20.371 70.9033 19.8221 71.4083 19.357C71.91 18.8858 72.5033 18.5199 73.1881 18.2439C73.8728 17.968 74.5987 17.8315 75.3718 17.8315M77.0601 23.2948C77.4546 23.2948 77.7196 23.2421 77.8553 23.1367C77.991 23.0313 78.0604 22.8173 78.0604 22.5011C78.0604 21.7941 77.7985 21.1957 77.2778 20.7027C76.754 20.2066 76.1071 19.9586 75.3339 19.9586C74.9553 19.9586 74.605 20.0206 74.2736 20.1446C73.9423 20.2686 73.6488 20.4392 73.3963 20.6655C73.1439 20.8826 72.9482 21.1461 72.8062 21.4438C72.6611 21.7445 72.5885 22.0763 72.5885 22.4484V23.2948H77.0633H77.0601Z" fill="#0186B7"/>
<path d="M87.0855 17.8379C88.0701 17.8379 88.9127 17.9836 89.6038 18.2782C90.298 18.5696 90.8597 18.9541 91.292 19.4285C91.7212 19.906 92.0368 20.4548 92.2324 21.0718C92.4344 21.692 92.5291 22.3307 92.5291 22.9818V29.6264C92.5291 29.8745 92.3997 30.0915 92.1409 30.2745C91.879 30.4605 91.5508 30.5504 91.1595 30.5504C90.7998 30.5504 90.4937 30.4605 90.2412 30.2745C89.9888 30.0884 89.8625 29.8714 89.8625 29.6264V28.6994C89.3955 29.2482 88.8306 29.7257 88.1648 30.1411C87.5021 30.5566 86.7131 30.7644 85.7948 30.7644C85.312 30.7644 84.8481 30.6962 84.4063 30.5504C83.9677 30.414 83.5859 30.1939 83.264 29.9055C82.9389 29.614 82.6865 29.2513 82.4971 28.8172C82.3078 28.3862 82.2131 27.8684 82.2131 27.27C82.2131 26.5258 82.3646 25.9119 82.6707 25.4158C82.9737 24.9228 83.406 24.5321 83.9614 24.2469C84.5199 23.9678 85.1826 23.7663 85.9558 23.6516C86.7258 23.5368 87.581 23.481 88.515 23.481H89.7016V23.0035C89.7016 22.6687 89.6574 22.3307 89.5659 21.9834C89.4775 21.6393 89.326 21.3323 89.1083 21.0563C88.8906 20.7835 88.616 20.5664 88.2752 20.3959C87.9344 20.2285 87.521 20.1417 87.0319 20.1417C86.5427 20.1417 86.142 20.1789 85.8201 20.2626C85.4982 20.3432 85.2268 20.4362 85.0122 20.5416C84.7976 20.6471 84.6115 20.7401 84.46 20.8207C84.3085 20.8982 84.1697 20.9385 84.0434 20.9385C83.6995 20.9385 83.447 20.7866 83.2734 20.4765C83.1062 20.1696 83.0178 19.8533 83.0178 19.5339C83.0178 19.3045 83.1409 19.0843 83.3934 18.8704C83.6458 18.6596 83.9708 18.4766 84.3653 18.3309C84.7598 18.1821 85.1921 18.0611 85.6686 17.9743C86.1483 17.8813 86.6185 17.8379 87.0855 17.8379ZM89.7016 25.0158H89.0294C88.5056 25.0158 88.0101 25.0406 87.5336 25.0809C87.0571 25.1243 86.6406 25.2174 86.2808 25.3476C85.9211 25.4809 85.6276 25.667 85.4035 25.915C85.1826 26.1631 85.069 26.4979 85.069 26.9227C85.069 27.5211 85.2331 27.9583 85.5645 28.2312C85.8958 28.504 86.3155 28.6404 86.8173 28.6404C87.1581 28.6404 87.4989 28.5629 87.8429 28.4048C88.1805 28.2467 88.4929 28.0451 88.7738 27.7971C89.0515 27.5459 89.2756 27.2669 89.4491 26.9475C89.6195 26.6281 89.7047 26.3119 89.7047 25.9925V25.0127L89.7016 25.0158Z" fill="#0186B7"/>
<path d="M96.5744 10.5298C96.9689 10.5298 97.3034 10.6166 97.5842 10.784C97.8619 10.9515 98.0008 11.1685 98.0008 11.4321V29.6265C98.0008 29.8559 97.8619 30.0668 97.5842 30.2621C97.3034 30.4575 96.9657 30.5536 96.5744 30.5536C96.1831 30.5536 95.8234 30.4575 95.5646 30.2621C95.3027 30.0668 95.1733 29.8559 95.1733 29.6265V11.4321C95.1733 11.1685 95.3027 10.9515 95.5646 10.784C95.8234 10.6166 96.1642 10.5298 96.5744 10.5298Z" fill="#008FC4"/>
<path d="M103.769 26.4205C103.769 27.0561 103.908 27.5057 104.186 27.7723C104.464 28.0359 104.956 28.1692 105.653 28.1692H106.6C107.013 28.1692 107.316 28.2932 107.515 28.5413C107.711 28.7893 107.812 29.0622 107.812 29.3599C107.812 29.6575 107.714 29.9366 107.515 30.1815C107.316 30.4296 107.013 30.5536 106.6 30.5536H105.653C104.11 30.5536 102.939 30.228 102.138 29.5769C101.339 28.9258 100.939 27.8716 100.939 26.4236V13.156C100.939 12.8894 101.087 12.6754 101.387 12.508C101.68 12.3437 101.999 12.2568 102.337 12.2568C102.7 12.2568 103.028 12.3437 103.324 12.508C103.618 12.6785 103.769 12.8894 103.769 13.156V18.0023H107.058C107.31 18.0023 107.506 18.1077 107.635 18.3185C107.771 18.5325 107.837 18.7712 107.837 19.0348C107.837 19.2983 107.771 19.5371 107.635 19.751C107.503 19.9619 107.31 20.0673 107.058 20.0673H103.769V26.4236V26.4205Z" fill="#0186B7"/>
<path d="M112.69 29.6234C112.69 29.8528 112.548 30.0637 112.261 30.259C111.971 30.4544 111.639 30.5505 111.267 30.5505C110.85 30.5505 110.513 30.4544 110.254 30.259C109.992 30.0637 109.863 29.8528 109.863 29.6234V11.4321C109.863 11.1654 109.992 10.9484 110.254 10.784C110.513 10.6166 110.85 10.5298 111.267 10.5298C111.642 10.5298 111.974 10.6166 112.261 10.784C112.548 10.9515 112.69 11.1685 112.69 11.4321V19.8502C112.942 19.3386 113.365 18.8767 113.959 18.4612C114.549 18.0457 115.278 17.8379 116.139 17.8379C116.767 17.8379 117.367 17.9744 117.935 18.2503C118.503 18.5263 119.001 18.8984 119.431 19.3759C119.86 19.8502 120.204 20.4084 120.456 21.044C120.705 21.6796 120.835 22.3493 120.835 23.0563V29.6234C120.835 29.9242 120.687 30.1505 120.39 30.3086C120.093 30.4699 119.768 30.5474 119.405 30.5474C119.08 30.5474 118.765 30.4699 118.459 30.3086C118.156 30.1505 118.001 29.9242 118.001 29.6234V23.0563C118.001 22.7214 117.932 22.3866 117.786 22.0517C117.641 21.7137 117.446 21.4192 117.19 21.1649C116.938 20.9076 116.65 20.6998 116.332 20.5417C116.007 20.3836 115.656 20.3029 115.281 20.3029C114.959 20.3029 114.64 20.3618 114.325 20.4859C114.009 20.6099 113.731 20.7928 113.488 21.0285C113.242 21.2703 113.053 21.5587 112.908 21.906C112.763 22.247 112.693 22.6346 112.693 23.0594V29.6265L112.69 29.6234Z" fill="#0186B7"/>
<path d="M138.428 16.5139C138.412 16.2876 138.368 16.0085 138.292 15.6799C138.223 15.3543 138.075 15.0442 137.86 14.7528C137.645 14.4613 137.336 14.2102 136.929 13.9993C136.525 13.7854 135.973 13.6769 135.272 13.6769C134.234 13.6769 133.429 13.9559 132.874 14.514C132.319 15.0721 132.038 15.9341 132.038 17.0968V24.8019C132.038 25.9677 132.319 26.8266 132.874 27.3847C133.429 27.9397 134.25 28.2188 135.329 28.2188C136.011 28.2188 136.554 28.1195 136.957 27.9149C137.361 27.7103 137.668 27.4622 137.876 27.1614C138.084 26.8607 138.217 26.5382 138.283 26.1941C138.343 25.8499 138.393 25.5274 138.428 25.2298C138.466 24.8763 138.611 24.6313 138.86 24.498C139.113 24.3678 139.435 24.3027 139.832 24.3027C140.331 24.3027 140.703 24.3988 140.934 24.5941C141.164 24.7895 141.284 25.1771 141.284 25.76C141.284 26.4824 141.132 27.149 140.839 27.7599C140.539 28.3676 140.123 28.8947 139.586 29.335C139.047 29.7753 138.4 30.1163 137.645 30.3551C136.888 30.5938 136.052 30.7117 135.137 30.7117C134.332 30.7117 133.562 30.6062 132.833 30.3954C132.107 30.1815 131.473 29.8435 130.933 29.3753C130.394 28.9071 129.964 28.2994 129.652 27.549C129.34 26.7987 129.182 25.884 129.182 24.8081V17.103C129.182 16.0271 129.34 15.1124 129.652 14.3621C129.964 13.6117 130.397 13.004 130.946 12.5358C131.492 12.0676 132.132 11.7297 132.861 11.5157C133.587 11.3049 134.354 11.1995 135.165 11.1995C136.08 11.1995 136.916 11.3173 137.671 11.556C138.425 11.7948 139.072 12.1265 139.608 12.5513C140.148 12.973 140.564 13.4784 140.848 14.0613C141.139 14.6411 141.281 15.2892 141.281 15.993C141.281 16.5945 141.161 16.9883 140.931 17.1713C140.697 17.3573 140.34 17.4472 139.851 17.4472C139.422 17.4472 139.081 17.3728 138.829 17.2271C138.58 17.0751 138.441 16.8395 138.422 16.5232" fill="#0186B7"/>
<path d="M147.791 17.8379C148.779 17.8379 149.618 17.9836 150.309 18.2782C151 18.5727 151.565 18.9541 151.994 19.4285C152.423 19.906 152.739 20.4548 152.938 21.0718C153.137 21.692 153.234 22.3307 153.234 22.9818V29.6264C153.234 29.8745 153.102 30.0915 152.843 30.2745C152.584 30.4605 152.253 30.5504 151.862 30.5504C151.505 30.5504 151.196 30.4605 150.943 30.2745C150.691 30.0884 150.565 29.8714 150.565 29.6264V28.6994C150.098 29.2482 149.533 29.7257 148.87 30.1411C148.201 30.5566 147.415 30.7644 146.497 30.7644C146.014 30.7644 145.55 30.6962 145.112 30.5504C144.67 30.414 144.291 30.1939 143.966 29.9055C143.644 29.614 143.389 29.2513 143.199 28.8172C143.01 28.3862 142.915 27.8684 142.915 27.27C142.915 26.5258 143.07 25.9119 143.373 25.4158C143.679 24.9228 144.108 24.5321 144.67 24.2469C145.225 23.9678 145.891 23.7663 146.664 23.6516C147.434 23.5368 148.286 23.481 149.22 23.481H150.407V23.0035C150.407 22.6687 150.36 22.3307 150.268 21.9834C150.18 21.6393 150.025 21.3323 149.81 21.0563C149.596 20.7835 149.318 20.5664 148.977 20.3959C148.637 20.2285 148.22 20.1417 147.734 20.1417C147.248 20.1417 146.844 20.1789 146.522 20.2626C146.2 20.3432 145.932 20.4362 145.714 20.5416C145.5 20.6471 145.317 20.7401 145.162 20.8207C145.011 20.8982 144.869 20.9385 144.746 20.9385C144.402 20.9385 144.146 20.7866 143.976 20.4765C143.805 20.1696 143.72 19.8533 143.72 19.5339C143.72 19.3045 143.846 19.0843 144.099 18.8704C144.351 18.6596 144.676 18.4766 145.071 18.3309C145.465 18.1821 145.901 18.0611 146.377 17.9743C146.854 17.8813 147.327 17.8379 147.794 17.8379M150.404 25.0158H149.728C149.208 25.0158 148.709 25.0406 148.233 25.0809C147.756 25.1243 147.343 25.2174 146.98 25.3476C146.62 25.4809 146.327 25.667 146.103 25.915C145.878 26.1631 145.768 26.4979 145.768 26.9227C145.768 27.5211 145.932 27.9583 146.267 28.2312C146.598 28.504 147.018 28.6404 147.519 28.6404C147.86 28.6404 148.201 28.5629 148.542 28.4048C148.883 28.2467 149.195 28.0451 149.473 27.7971C149.751 27.5459 149.975 27.2669 150.145 26.9475C150.315 26.6281 150.404 26.3119 150.404 25.9925V25.0127V25.0158Z" fill="#0186B7"/>
<path d="M161.847 20.3028C161.433 20.3028 161.033 20.3896 160.648 20.5664C160.259 20.7431 159.912 21.0004 159.609 21.3322C159.303 21.6671 159.054 22.0795 158.865 22.5663C158.678 23.05 158.584 23.5926 158.584 24.1941V29.6233C158.584 29.8496 158.445 30.0636 158.167 30.2589C157.889 30.4542 157.542 30.5504 157.129 30.5504C156.716 30.5504 156.384 30.4542 156.132 30.2589C155.879 30.0636 155.753 29.8527 155.753 29.6233V18.8951C155.753 18.6316 155.879 18.4145 156.132 18.2471C156.384 18.0766 156.716 17.9959 157.129 17.9959C157.486 17.9959 157.792 18.0797 158.047 18.2471C158.297 18.4145 158.423 18.6316 158.423 18.8951V20.061C158.568 19.7788 158.751 19.5059 158.978 19.2393C159.199 18.9757 159.461 18.737 159.758 18.5231C160.054 18.3091 160.376 18.1417 160.73 18.0208C161.077 17.8967 161.449 17.8347 161.85 17.8347H162.708C162.999 17.8347 163.251 17.9556 163.462 18.1944C163.68 18.4331 163.787 18.7184 163.787 19.0533C163.787 19.4067 163.68 19.7013 163.462 19.94C163.251 20.1757 162.999 20.2997 162.708 20.2997H161.85L161.847 20.3028Z" fill="#0186B7"/>
<path d="M170.253 17.838C170.973 17.838 171.655 17.9589 172.305 18.1977C172.955 18.4333 173.52 18.7682 174.012 19.2023C174.507 19.6363 174.899 20.1542 175.186 20.7526C175.473 21.351 175.618 22.0145 175.618 22.737C175.618 23.2827 175.546 23.7106 175.4 24.0206C175.255 24.3307 175.072 24.5539 174.848 24.6966C174.624 24.8361 174.365 24.9291 174.065 24.9632C173.772 24.9973 173.469 25.0159 173.163 25.0159H167.476V25.6236C167.476 26.5259 167.795 27.2298 168.448 27.7445C169.095 28.2561 169.938 28.5134 170.979 28.5134C171.465 28.5134 171.872 28.4576 172.204 28.3522C172.538 28.2468 172.822 28.132 173.065 28.0111C173.311 27.8871 173.523 27.7724 173.712 27.6638C173.901 27.5584 174.084 27.5057 174.264 27.5057C174.605 27.5057 174.877 27.6514 175.075 27.9429C175.274 28.2344 175.372 28.5041 175.372 28.7522C175.372 28.9444 175.268 29.1614 175.063 29.3971C174.854 29.6358 174.555 29.8591 174.16 30.0606C173.763 30.2653 173.292 30.4327 172.743 30.5629C172.194 30.6963 171.585 30.7614 170.9 30.7614C169.982 30.7614 169.143 30.6311 168.379 30.3769C167.615 30.1226 166.953 29.7661 166.4 29.3041C165.842 28.8452 165.409 28.2933 165.106 27.6483C164.8 27.0034 164.646 26.2872 164.646 25.4872V22.9726C164.646 22.2843 164.794 21.6238 165.094 20.9975C165.387 20.3712 165.788 19.8224 166.293 19.3573C166.792 18.886 167.388 18.5201 168.073 18.2442C168.751 17.9682 169.48 17.8318 170.253 17.8318M171.951 23.2951C172.346 23.2951 172.611 23.2424 172.743 23.1369C172.879 23.0315 172.952 22.8176 172.952 22.5013C172.952 21.7944 172.69 21.196 172.166 20.703C171.645 20.2069 170.995 19.9588 170.225 19.9588C169.846 19.9588 169.496 20.0208 169.165 20.1448C168.83 20.2689 168.54 20.4394 168.287 20.6658C168.032 20.8828 167.836 21.1464 167.694 21.444C167.552 21.7448 167.48 22.0765 167.48 22.4486V23.2951H171.954H171.951Z" fill="#0186B7"/>
<path d="M184.861 30.5504C184.555 30.5504 184.267 30.4728 183.996 30.3116C183.728 30.1535 183.592 29.9271 183.592 29.6264V12.0955C183.592 11.7792 183.74 11.5467 184.034 11.4071C184.33 11.2676 184.659 11.1963 185.018 11.1963C185.378 11.1963 185.709 11.2676 186.006 11.4071C186.3 11.5467 186.451 11.7792 186.451 12.0955V28.0637H193.457C193.747 28.0637 193.958 28.1908 194.107 28.445C194.246 28.6993 194.321 28.9876 194.321 29.3039C194.321 29.6202 194.249 29.8899 194.107 30.1535C193.962 30.417 193.747 30.5504 193.457 30.5504H184.861Z" fill="#0186B7"/>
<path d="M197.011 30.5504C196.809 30.5504 196.607 30.5256 196.405 30.4729C196.193 30.417 196.004 30.3395 195.824 30.231C195.644 30.1287 195.502 30.0016 195.395 29.862C195.284 29.7225 195.231 29.5644 195.231 29.3845C195.231 29.2791 195.24 29.1985 195.256 29.1458L200.621 11.987C200.728 11.6707 200.952 11.432 201.296 11.2707C201.637 11.1126 202.009 11.032 202.429 11.032C202.849 11.032 203.224 11.1126 203.571 11.2707C203.921 11.432 204.149 11.6707 204.259 11.987L209.592 29.1458C209.63 29.2512 209.652 29.3318 209.652 29.3845C209.652 29.5427 209.589 29.6946 209.475 29.8341C209.359 29.9768 209.214 30.1008 209.046 30.2062C208.87 30.3085 208.68 30.3953 208.466 30.4574C208.248 30.5194 208.043 30.5473 207.847 30.5473C207.61 30.5473 207.409 30.5039 207.238 30.4139C207.068 30.3271 206.948 30.1752 206.872 29.9644L205.771 26.2033H199.112L198.008 29.9644C197.935 30.1752 197.815 30.3271 197.645 30.4139C197.474 30.5039 197.263 30.5473 197.014 30.5473M205.121 23.9554L202.429 14.8736L199.731 23.9554H205.121Z" fill="#0186B7"/>
<path d="M209.923 10.9731C210.021 10.9731 210.097 11.0507 210.097 11.1406C210.097 11.2367 210.021 11.3142 209.923 11.3142H209.264V14.2164C209.264 14.3094 209.188 14.3838 209.09 14.3838C208.999 14.3838 208.92 14.3094 208.92 14.2164V11.3142H208.263C208.169 11.3142 208.093 11.2367 208.093 11.1406C208.093 11.0538 208.169 10.9731 208.263 10.9731H209.923Z" fill="#0186B7"/>
<path d="M212.815 14.2134V11.8352L212.022 13.3917C211.994 13.4537 211.937 13.4878 211.868 13.4878C211.808 13.4878 211.748 13.4568 211.713 13.3917L210.924 11.8352V14.2134C210.924 14.3064 210.845 14.3839 210.751 14.3839C210.656 14.3839 210.58 14.3095 210.58 14.2134V11.1158C210.583 11.0197 210.656 10.9453 210.751 10.9453C210.811 10.9453 210.877 10.9825 210.905 11.0383L211.868 12.9421L212.837 11.0383C212.868 10.9856 212.928 10.9453 212.991 10.9453C213.092 10.9453 213.162 11.0321 213.162 11.1158V14.2134C213.162 14.3064 213.083 14.3839 212.991 14.3839C212.9 14.3839 212.818 14.3095 212.818 14.2134" fill="#0186B7"/>
<path d="M34.0663 14.3125L42.9495 12.2847C43 12.2723 43.0442 12.2382 43.0663 12.1917C43.0884 12.1421 43.0884 12.0863 43.06 12.0397C42.8296 11.5995 42.5582 11.1344 42.2048 10.5793C42.1638 10.5142 42.0817 10.4832 42.0091 10.508L31.4944 13.649C32.2865 13.5714 33.1795 13.7079 34.0631 14.3094" fill="#FAA61A"/>
<path d="M38.873 18.4548L45.0834 18.6595H45.0897C45.1402 18.6595 45.1875 18.6378 45.2191 18.6006C45.2538 18.5634 45.2664 18.5107 45.2601 18.461C45.1591 17.8936 45.0329 17.3231 44.8783 16.7247C44.8593 16.6472 44.7773 16.579 44.7047 16.5976L37.0364 16.8487C37.6139 17.3541 38.2292 17.8905 38.8761 18.4517" fill="#FAA61A"/>
<path d="M0.884107 18.3836H0.890419L10.2155 18.0735L11.6135 17.1371C11.6135 17.1371 14.5388 15.376 17.1643 17.1371C18.1489 17.7976 20.1275 19.1246 22.2134 20.523L26.9848 16.3589C26.9659 16.2193 26.9627 16.0736 26.9312 15.9372L27.6601 15.7697L28.9571 14.6411C28.9571 14.6411 29.2411 14.4179 29.7082 14.1822L26.6976 15.0814C26.5651 14.6814 26.401 14.297 26.2085 13.928L39.2226 7.10662C39.2699 7.08181 39.3015 7.0353 39.3141 6.98259C39.3236 6.92988 39.3046 6.87717 39.2668 6.83996C38.9449 6.5144 38.5883 6.17643 38.1023 5.74545C38.0455 5.69274 37.9603 5.68653 37.8972 5.72684L25.7572 13.159C25.5237 12.8087 25.2586 12.48 24.9778 12.1699L34.5238 3.40138C34.5648 3.36417 34.5837 3.31146 34.5774 3.25875C34.5742 3.20604 34.5395 3.15953 34.4953 3.13162C34.0409 2.86187 33.6149 2.63243 33.1921 2.42158C33.1226 2.38438 33.0374 2.40298 32.9869 2.45879L24.3403 11.5436C24.0248 11.2645 23.6903 11.0072 23.3337 10.7809L29.4368 1.16583C29.4652 1.11932 29.4715 1.06351 29.4494 1.0139C29.4305 0.964292 29.3894 0.927085 29.339 0.911582C28.9319 0.793758 28.4964 0.682136 28.0009 0.570514C27.9252 0.558111 27.8495 0.589117 27.8116 0.657331L22.5542 10.3406C22.1787 10.1514 21.7874 9.99019 21.3803 9.85997L24.3467 0.279056C24.3624 0.229446 24.3561 0.176735 24.3246 0.133327C24.2962 0.0899179 24.2457 0.0620124 24.1952 0.0589117C24.069 0.0527105 23.9396 0.0434087 23.8102 0.0372074C23.5325 0.0186037 23.2516 0 22.9676 0H22.9266C22.8445 0 22.7751 0.0558111 22.7593 0.133327L20.5125 9.62742C20.1023 9.5437 19.6794 9.49719 19.2502 9.47549L19.5563 0.480596C19.5563 0.430986 19.5374 0.381376 19.4995 0.347269C19.4616 0.316263 19.4112 0.30076 19.3575 0.310062L19.1145 0.347269C18.8021 0.393779 18.4897 0.443388 18.1836 0.508501C18.1015 0.527105 18.0447 0.598419 18.0479 0.679035L18.3477 9.47549C17.9185 9.49719 17.4957 9.5437 17.0854 9.62742L15.1825 1.58132C15.1699 1.53481 15.1384 1.4945 15.0942 1.46969C15.05 1.44489 14.9995 1.44799 14.9522 1.46039L14.7912 1.5224C14.4914 1.63403 14.1916 1.74565 13.8982 1.87277C13.8161 1.90688 13.7783 1.9937 13.8003 2.07431L16.2113 9.85687C15.8042 9.98709 15.4129 10.1514 15.0374 10.3375L11.2853 3.42618C11.2632 3.38588 11.2221 3.35487 11.178 3.34247C11.1306 3.33006 11.0833 3.33937 11.0423 3.36107L10.8529 3.47579C10.6036 3.62772 10.3543 3.77655 10.1113 3.94089C10.0356 3.9905 10.0135 4.09282 10.064 4.16723L14.2516 10.7746C13.895 11.0041 13.5605 11.2614 13.2449 11.5405L7.88658 5.90978C7.82347 5.84157 7.71302 5.83536 7.64675 5.90048L7.44478 6.07721C7.24282 6.25705 7.0377 6.43998 6.8452 6.63222C6.81365 6.66633 6.79471 6.70974 6.79471 6.75315C6.79471 6.79966 6.8168 6.84306 6.84836 6.87407L12.6075 12.1637C12.3235 12.4738 12.0616 12.8025 11.8312 13.1528L5.0149 8.98249C4.93917 8.93598 4.83819 8.95459 4.78454 9.0259L4.59835 9.27085C4.43426 9.48169 4.27647 9.68943 4.125 9.90958C4.0966 9.94988 4.08713 9.99949 4.10291 10.046C4.11238 10.0925 4.14393 10.1297 4.18811 10.1545L11.3831 13.9249C11.1906 14.2939 11.0265 14.6783 10.8908 15.0783L2.72703 12.6381C2.64498 12.6133 2.55978 12.6505 2.52191 12.7249L2.42724 12.9172C2.28839 13.1962 2.15269 13.4753 2.02962 13.7636C2.01069 13.8102 2.01384 13.8598 2.03593 13.9063C2.05802 13.9528 2.09905 13.9838 2.14954 13.9931L10.651 15.9341C10.5658 16.3372 10.5184 16.7526 10.4963 17.1743L1.14919 16.8674C1.06083 16.8643 0.994556 16.917 0.975622 16.9976C0.880952 17.3666 0.786281 17.7665 0.707389 18.1789C0.697922 18.2285 0.710544 18.2812 0.745257 18.3185C0.776814 18.3557 0.827305 18.3774 0.87464 18.3774" fill="#FAA61A"/>
<path d="M0.36376 23.0872C0.36376 23.1399 0.392161 23.1865 0.436341 23.2175C0.464742 23.2392 0.499454 23.2485 0.534167 23.2485C0.549945 23.2485 0.565724 23.2485 0.584658 23.2392L4.06223 22.2005L7.20529 20.092L0.474209 21.633C0.398472 21.6517 0.344826 21.7137 0.34167 21.7943C0.34167 21.8594 0.335359 21.9245 0.332203 21.9865C0.325891 22.0733 0.31958 22.1633 0.31958 22.2532C0.31958 22.4237 0.332203 22.5942 0.34167 22.7617C0.351137 22.8702 0.357448 22.9787 0.360604 23.0872" fill="#FAA61A"/>
<path d="M34.5052 16.7497C31.8796 14.4614 28.9543 16.7497 28.9543 16.7497L22.2106 22.6315C20.1279 21.2332 18.1492 19.9061 17.1647 19.2426C14.5391 17.4814 11.6138 19.2426 11.6138 19.2426L0.906555 26.4267C1.02647 27.0344 1.1811 27.6328 1.34835 28.222C1.92269 27.8344 3.07767 27.639 4.02122 27.9429C5.51386 28.4235 10.2285 29.6079 13.5956 30.0358C13.624 30.0389 13.6587 30.0482 13.6903 30.0482L14.2835 29.8002C15.1766 29.456 17.01 28.8948 19.2285 29.0405C24.5868 29.4033 24.5237 28.9382 26.9568 28.0514C27.0988 27.9987 27.2629 27.9491 27.4396 27.8933C27.5911 27.8468 27.7583 27.8003 27.935 27.7569C27.9571 27.7507 27.9761 27.7445 28.0013 27.7383C28.4021 27.6359 28.8565 27.5274 29.3488 27.4282C32.7159 26.743 37.9954 26.2872 41.17 27.6949C42.3849 28.2344 43.4105 28.7708 44.2689 29.2607C44.6318 28.2034 44.9063 27.1088 45.0988 25.9895C42.2114 23.4687 36.4491 18.4426 34.5115 16.7528" fill="#64BF44"/>
<path d="M19.2284 30.7084C24.59 31.096 24.5237 30.5875 26.9567 29.5457C29.3898 28.5101 37.0518 26.9784 41.1636 29.124C42.1419 29.6356 43.0003 30.1472 43.7481 30.6278C42.3912 33.8649 40.2737 36.7081 37.6135 38.9623C36.4585 38.2616 33.8677 38.6119 33.8677 38.6119C29.7527 39.0398 26.0132 40.0196 24.2681 40.1374C22.6429 40.2521 10.4777 36.6771 3.00821 31.9704C3.00821 31.9704 1.43036 31.0402 2.44965 29.4465C2.79678 28.9101 3.84446 29.2388 4.20737 29.4C5.68107 30.0542 10.3168 31.3999 13.6871 31.8929C13.6397 32.2991 13.7439 32.7331 13.9995 33.1765C14.9872 34.8695 17.7768 35.226 19.9385 35.2291C20.3235 35.2291 20.7179 35.2167 21.1155 35.195C21.753 35.164 23.435 35.0803 25.2968 35.0803C30.3491 35.0803 32.2078 35.6291 32.2236 35.6384L33.1356 35.9113L32.3877 35.3346C30.8477 34.1532 26.3729 34.0943 25.4893 34.0943H25.3789C23.517 34.0943 21.8445 34.1749 21.2102 34.209C20.8315 34.2307 20.4592 34.2401 20.09 34.2432C18.1618 34.2432 15.6972 33.9548 14.9083 32.5781C14.6211 32.0758 14.6085 31.6603 14.8736 31.31C15.2049 31.034 15.6152 30.9069 15.6183 30.9069C15.6183 30.9069 17.2561 30.5689 19.2316 30.7115" fill="#008FC4"/>
</svg>
